<svg width="82" height="82" viewBox="0 0 82 82" fill="none" xmlns="http://www.w3.org/2000/svg">
<circle cx="41" cy="41" r="41" fill="url(#paint0_linear_50_66)"/>
<path d="M33.4943 32.7874C33.4943 29.4652 33.4781 26.1511 33.4943 22.8289C33.5265 18.5714 36.0827 16.0394 40.3644 16.0072C41.195 16.0072 42.0255 15.991 42.856 16.0072C46.4363 16.0717 49.1698 18.5714 49.2182 22.1193C49.3149 29.3443 49.3069 36.5611 49.2182 43.7861C49.1779 47.3018 46.5572 49.7934 43.0415 49.9305C42.0174 49.9708 40.9934 49.9628 39.9693 49.9305C36.1552 49.8418 33.5588 47.2776 33.5023 43.4555C33.4539 39.8914 33.4943 36.3273 33.4943 32.7713V32.7874Z" fill="white"/>
<path d="M39.171 61.9773C39.2759 61.5903 39.3162 61.4935 39.3162 61.4048C39.4344 59.3191 38.5179 57.9402 36.5665 57.2682C30.2931 55.0991 25.9307 49.2047 25.7533 42.6571C25.713 41.1008 26.2613 40.3025 27.4305 40.2138C28.6642 40.1251 29.3496 40.8831 29.4625 42.4797C30.0512 50.519 36.9374 55.7926 44.3478 53.8815C49.3795 52.5833 52.8549 48.1564 53.258 42.4555C53.3387 41.3185 53.5886 40.4154 54.8788 40.23C56.177 40.0445 56.9753 40.867 56.9915 42.3587C57.0398 49.5434 51.5808 56.228 44.4849 57.7198C43.9688 57.8246 43.106 58.123 43.0738 58.4052C42.9448 59.4938 43.0738 60.6146 43.1786 61.7193C43.1867 61.8241 43.7753 61.9209 44.1059 61.937C44.9365 61.9693 45.767 61.937 46.5976 61.9612C48.9037 62.0499 49.9439 63.3804 49.573 65.8962C49.0892 65.9204 48.5731 65.9607 48.0571 65.9688C43.614 65.9688 39.1791 65.9688 34.7361 65.9688C32.9944 65.9688 32.5912 65.4205 33.1395 63.7675C33.5427 62.566 34.4377 61.9773 35.6956 61.9693C36.8568 61.9612 38.0179 61.9693 39.1791 61.9693L39.171 61.9773Z" fill="white"/>
<defs>
<linearGradient id="paint0_linear_50_66" x1="-10" y1="9" x2="94" y2="82" gradientUnits="userSpaceOnUse">
<stop stop-color="#FFB951"/>
<stop offset="1" stop-color="#FFD699"/>
</linearGradient>
</defs>
</svg>
