<svg width="82" height="82" viewBox="0 0 82 82" fill="none" xmlns="http://www.w3.org/2000/svg">
<circle cx="41" cy="41" r="41" fill="url(#paint0_linear_94_11)"/>
<g clip-path="url(#clip0_94_11)">
<path d="M53.1978 25.7765C53.8644 24.698 54.5418 23.6732 55.1386 22.5947C55.3213 22.262 55.4611 21.7094 55.3052 21.4357C55.1547 21.1674 54.5956 20.985 54.2246 21.0011C51.0904 21.1191 47.9616 21.2801 44.8274 21.4572C43.5747 21.5269 43.3382 21.9508 43.8005 23.142C44.9349 26.0555 46.0423 28.9798 47.2197 31.8773C47.3863 32.2904 47.8164 32.7895 48.1981 32.8646C48.4938 32.9236 48.9884 32.4353 49.2464 32.0812C49.8432 31.2549 50.3539 30.3588 50.9399 29.4198C53.2838 31.6305 54.816 34.2167 55.4396 37.2751C57.2029 45.9192 51.8914 53.8336 43.2253 55.5613C33.1668 57.5627 23.748 48.5269 25.3447 38.4288C26.0973 33.6533 28.5273 30.0154 32.6077 27.456C33.8226 26.6941 34.1936 25.5351 33.5646 24.4727C32.9141 23.3727 31.6722 23.1366 30.4143 23.8825C23.5921 27.9067 19.9418 35.8908 21.2696 43.8642C22.5706 51.6873 28.6885 58.0027 36.5053 59.5963C47.4132 61.8123 57.9287 54.7082 59.7082 43.773C60.778 37.1947 58.8856 31.4534 54.1494 26.6941C53.8483 26.3882 53.5311 26.0985 53.1978 25.7765Z" fill="white"/>
</g>
<defs>
<linearGradient id="paint0_linear_94_11" x1="-10" y1="9" x2="94" y2="82" gradientUnits="userSpaceOnUse">
<stop stop-color="#FFB951"/>
<stop offset="1" stop-color="#FFD699"/>
</linearGradient>
<clipPath id="clip0_94_11">
<rect width="39" height="39" fill="white" transform="translate(21 21)"/>
</clipPath>
</defs>
</svg>
