<svg width="259" height="140" viewBox="0 0 259 140" fill="none" xmlns="http://www.w3.org/2000/svg">
<path d="M3.3335 117H1.5735V105.56H6.3415C8.5015 105.56 10.0855 106.568 10.0855 108.968C10.0855 111.368 8.5015 112.36 6.3415 112.36H3.3335V117ZM3.3335 110.84H6.2615C7.5895 110.84 8.2615 110.248 8.2615 108.968C8.2615 107.672 7.5895 107.08 6.2615 107.08H3.3335V110.84ZM12.8543 117H11.2863V105.56H12.8543V117ZM22.1024 112.744C22.1024 112.968 22.1024 113.208 22.0864 113.336H15.8144C15.8464 114.696 16.6464 115.96 18.2624 115.96C19.7024 115.96 20.2624 115.032 20.4064 114.488H22.0064C21.5744 116.056 20.3744 117.24 18.2304 117.24C15.6384 117.24 14.1984 115.4 14.1984 112.904C14.1984 110.344 15.7344 108.584 18.2304 108.584C20.7104 108.584 22.1024 110.216 22.1024 112.744ZM15.8144 112.104H20.4704C20.4704 110.824 19.5744 109.864 18.1824 109.864C16.8704 109.864 15.9104 110.76 15.8144 112.104ZM25.6829 117.224C24.0509 117.224 23.0109 116.28 23.0109 114.888C23.0109 113.064 24.3869 112.52 26.4189 112.136C27.6989 111.896 28.4829 111.736 28.4829 110.936C28.4829 110.344 28.1309 109.848 26.9309 109.848C25.5069 109.848 25.0749 110.296 24.9949 111.384H23.3949C23.4749 109.816 24.4989 108.584 26.9949 108.584C28.6749 108.584 30.0189 109.288 30.0189 111.4V115.144C30.0189 115.736 30.0989 116.04 30.4029 116.04C30.4509 116.04 30.4989 116.04 30.5949 116.024V116.984C30.3229 117.048 30.0509 117.08 29.7949 117.08C29.0109 117.08 28.5949 116.776 28.4989 115.848H28.4669C27.9389 116.696 27.0109 117.224 25.6829 117.224ZM26.0349 115.96C27.4429 115.96 28.4829 115.24 28.4829 113.816V112.648C28.2269 112.888 27.5229 113.064 26.6909 113.24C25.2509 113.528 24.6429 113.928 24.6429 114.776C24.6429 115.544 25.0589 115.96 26.0349 115.96ZM35.1429 117.224C32.6629 117.224 31.4309 115.944 31.3829 114.28H32.9669C33.0309 115.224 33.6069 115.96 35.1269 115.96C36.5029 115.96 36.8709 115.352 36.8709 114.76C36.8709 113.736 35.7829 113.624 34.7269 113.4C33.3029 113.064 31.6709 112.648 31.6709 110.952C31.6709 109.544 32.8069 108.6 34.7749 108.6C37.0149 108.6 38.0869 109.8 38.1989 111.208H36.6149C36.5029 110.584 36.1669 109.864 34.8069 109.864C33.7509 109.864 33.3029 110.28 33.3029 110.888C33.3029 111.736 34.2149 111.816 35.3669 112.072C36.8709 112.424 38.5029 112.856 38.5029 114.68C38.5029 116.264 37.2869 117.224 35.1429 117.224ZM47.2274 112.744C47.2274 112.968 47.2274 113.208 47.2114 113.336H40.9394C40.9714 114.696 41.7714 115.96 43.3874 115.96C44.8274 115.96 45.3874 115.032 45.5314 114.488H47.1314C46.6994 116.056 45.4994 117.24 43.3554 117.24C40.7634 117.24 39.3234 115.4 39.3234 112.904C39.3234 110.344 40.8594 108.584 43.3554 108.584C45.8354 108.584 47.2274 110.216 47.2274 112.744ZM40.9394 112.104H45.5954C45.5954 110.824 44.6994 109.864 43.3074 109.864C41.9954 109.864 41.0354 110.76 40.9394 112.104ZM54.1516 117.224C52.5196 117.224 51.4796 116.28 51.4796 114.888C51.4796 113.064 52.8556 112.52 54.8876 112.136C56.1676 111.896 56.9516 111.736 56.9516 110.936C56.9516 110.344 56.5996 109.848 55.3996 109.848C53.9756 109.848 53.5436 110.296 53.4636 111.384H51.8636C51.9436 109.816 52.9676 108.584 55.4636 108.584C57.1436 108.584 58.4876 109.288 58.4876 111.4V115.144C58.4876 115.736 58.5676 116.04 58.8716 116.04C58.9196 116.04 58.9676 116.04 59.0636 116.024V116.984C58.7916 117.048 58.5196 117.08 58.2636 117.08C57.4796 117.08 57.0636 116.776 56.9676 115.848H56.9356C56.4076 116.696 55.4796 117.224 54.1516 117.224ZM54.5036 115.96C55.9116 115.96 56.9516 115.24 56.9516 113.816V112.648C56.6956 112.888 55.9916 113.064 55.1596 113.24C53.7196 113.528 53.1116 113.928 53.1116 114.776C53.1116 115.544 53.5276 115.96 54.5036 115.96ZM66.1095 109.832V105.56H67.6775V117H66.1095V116.04H66.0775C65.6295 116.616 64.8455 117.224 63.5655 117.224C61.4855 117.224 59.9015 115.608 59.9015 112.92C59.9015 110.232 61.4855 108.6 63.5655 108.6C64.8455 108.6 65.6295 109.192 66.0775 109.832H66.1095ZM63.8215 115.928C65.2295 115.928 66.0935 114.76 66.0935 112.92C66.0935 111.064 65.2295 109.912 63.8215 109.912C62.2855 109.912 61.5335 111.32 61.5335 112.92C61.5335 114.52 62.2855 115.928 63.8215 115.928ZM75.2345 109.832V105.56H76.8025V117H75.2345V116.04H75.2025C74.7545 116.616 73.9705 117.224 72.6905 117.224C70.6105 117.224 69.0265 115.608 69.0265 112.92C69.0265 110.232 70.6105 108.6 72.6905 108.6C73.9705 108.6 74.7545 109.192 75.2025 109.832H75.2345ZM72.9465 115.928C74.3545 115.928 75.2185 114.76 75.2185 112.92C75.2185 111.064 74.3545 109.912 72.9465 109.912C71.4105 109.912 70.6585 111.32 70.6585 112.92C70.6585 114.52 71.4105 115.928 72.9465 115.928ZM85.4953 117.24C83.0633 117.24 81.4793 115.48 81.4793 112.92C81.4793 110.36 83.0633 108.6 85.4793 108.6C87.5753 108.6 88.9673 109.96 89.1593 111.8H87.5433C87.4633 110.952 86.9833 109.896 85.4953 109.896C83.7513 109.896 83.1113 111.384 83.1113 112.92C83.1113 114.456 83.7513 115.928 85.4953 115.928C86.9993 115.928 87.4633 114.904 87.5433 113.976H89.1593C89.0473 115.848 87.5913 117.24 85.4953 117.24ZM94.0593 117.24C91.5153 117.24 89.9793 115.48 89.9793 112.92C89.9793 110.376 91.5153 108.584 94.0753 108.584C96.6033 108.584 98.1393 110.36 98.1393 112.904C98.1393 115.464 96.6033 117.24 94.0593 117.24ZM94.0753 115.944C95.7393 115.944 96.5073 114.616 96.5073 112.92C96.5073 111.208 95.7393 109.896 94.0753 109.896C92.3793 109.896 91.6113 111.208 91.6113 112.92C91.6113 114.616 92.3793 115.944 94.0753 115.944ZM101.042 117H99.4738V105.56H101.042V117ZM106.45 117.24C103.906 117.24 102.37 115.48 102.37 112.92C102.37 110.376 103.906 108.584 106.466 108.584C108.994 108.584 110.53 110.36 110.53 112.904C110.53 115.464 108.994 117.24 106.45 117.24ZM106.466 115.944C108.13 115.944 108.898 114.616 108.898 112.92C108.898 111.208 108.13 109.896 106.466 109.896C104.77 109.896 104.002 111.208 104.002 112.92C104.002 114.616 104.77 115.944 106.466 115.944ZM115.656 108.648C115.944 108.648 116.168 108.664 116.408 108.696V110.2C116.216 110.168 116.072 110.152 115.88 110.152C114.456 110.152 113.432 111.224 113.432 112.776V117H111.864V108.84H113.432V110.392H113.464C113.896 109.368 114.552 108.648 115.656 108.648ZM120.471 117.224C117.991 117.224 116.759 115.944 116.711 114.28H118.295C118.359 115.224 118.935 115.96 120.455 115.96C121.831 115.96 122.199 115.352 122.199 114.76C122.199 113.736 121.111 113.624 120.055 113.4C118.631 113.064 116.999 112.648 116.999 110.952C116.999 109.544 118.135 108.6 120.103 108.6C122.343 108.6 123.415 109.8 123.527 111.208H121.943C121.831 110.584 121.495 109.864 120.135 109.864C119.079 109.864 118.631 110.28 118.631 110.888C118.631 111.736 119.543 111.816 120.695 112.072C122.199 112.424 123.831 112.856 123.831 114.68C123.831 116.264 122.615 117.224 120.471 117.224ZM131.419 115.8C131.691 115.8 131.819 115.784 132.091 115.736V117C131.691 117.08 131.435 117.096 131.099 117.096C129.755 117.096 128.939 116.584 128.939 114.696V110.136H127.755V108.84H128.939V106.216H130.507V108.84H132.075V110.136H130.507V114.744C130.507 115.608 130.747 115.8 131.419 115.8ZM136.856 117.24C134.312 117.24 132.776 115.48 132.776 112.92C132.776 110.376 134.312 108.584 136.872 108.584C139.4 108.584 140.936 110.36 140.936 112.904C140.936 115.464 139.4 117.24 136.856 117.24ZM136.872 115.944C138.536 115.944 139.304 114.616 139.304 112.92C139.304 111.208 138.536 109.896 136.872 109.896C135.176 109.896 134.408 111.208 134.408 112.92C134.408 114.616 135.176 115.944 136.872 115.944ZM149.262 117.24C146.718 117.24 145.182 115.48 145.182 112.92C145.182 110.376 146.718 108.584 149.278 108.584C151.806 108.584 153.342 110.36 153.342 112.904C153.342 115.464 151.806 117.24 149.262 117.24ZM149.278 115.944C150.942 115.944 151.71 114.616 151.71 112.92C151.71 111.208 150.942 109.896 149.278 109.896C147.582 109.896 146.814 111.208 146.814 112.92C146.814 114.616 147.582 115.944 149.278 115.944ZM160.053 113.848V108.84H161.621V117H160.053V115.976H160.021C159.589 116.6 158.741 117.224 157.333 117.224C155.829 117.224 154.613 116.36 154.613 114.488V108.84H156.181V114.056C156.181 115.16 156.661 115.896 157.845 115.896C159.189 115.896 160.053 115.08 160.053 113.848ZM167.172 108.648C167.46 108.648 167.684 108.664 167.924 108.696V110.2C167.732 110.168 167.588 110.152 167.396 110.152C165.972 110.152 164.948 111.224 164.948 112.776V117H163.38V108.84H164.948V110.392H164.98C165.412 109.368 166.068 108.648 167.172 108.648ZM176.215 108.6C177.719 108.6 178.935 109.464 178.935 111.336V117H177.367V111.768C177.367 110.68 176.887 109.944 175.703 109.944C174.359 109.944 173.495 110.76 173.495 111.992V117H171.927V108.84H173.495V109.864H173.527C173.959 109.24 174.807 108.6 176.215 108.6ZM188.118 112.744C188.118 112.968 188.118 113.208 188.102 113.336H181.83C181.862 114.696 182.662 115.96 184.278 115.96C185.718 115.96 186.278 115.032 186.422 114.488H188.022C187.59 116.056 186.39 117.24 184.246 117.24C181.654 117.24 180.214 115.4 180.214 112.904C180.214 110.344 181.75 108.584 184.246 108.584C186.726 108.584 188.118 110.216 188.118 112.744ZM181.83 112.104H186.486C186.486 110.824 185.59 109.864 184.198 109.864C182.886 109.864 181.926 110.76 181.83 112.104ZM192.679 117H191.063L188.535 108.84H190.231L191.959 115.16H191.991L193.687 108.84H195.271L196.967 115.16H196.999L198.743 108.84H200.375L197.847 117H196.231L194.471 110.712H194.439L192.679 117ZM206.123 107.384H204.347V105.688H206.123V107.384ZM204.059 119.896C203.723 119.896 203.482 119.864 203.082 119.8V118.504C203.338 118.536 203.466 118.552 203.707 118.552C204.203 118.552 204.443 118.28 204.443 117.368V108.84H206.011V117.432C206.011 119.176 205.211 119.896 204.059 119.896ZM211.419 117.24C208.875 117.24 207.339 115.48 207.339 112.92C207.339 110.376 208.875 108.584 211.435 108.584C213.963 108.584 215.499 110.36 215.499 112.904C215.499 115.464 213.963 117.24 211.419 117.24ZM211.435 115.944C213.099 115.944 213.867 114.616 213.867 112.92C213.867 111.208 213.099 109.896 211.435 109.896C209.739 109.896 208.971 111.208 208.971 112.92C208.971 114.616 209.739 115.944 211.435 115.944ZM222.209 113.848V108.84H223.777V117H222.209V115.976H222.177C221.745 116.6 220.897 117.224 219.489 117.224C217.985 117.224 216.769 116.36 216.769 114.488V108.84H218.337V114.056C218.337 115.16 218.817 115.896 220.001 115.896C221.345 115.896 222.209 115.08 222.209 113.848ZM229.328 108.648C229.616 108.648 229.84 108.664 230.08 108.696V110.2C229.888 110.168 229.744 110.152 229.552 110.152C228.128 110.152 227.104 111.224 227.104 112.776V117H225.536V108.84H227.104V110.392H227.136C227.568 109.368 228.224 108.648 229.328 108.648ZM235.387 108.6C236.891 108.6 238.107 109.464 238.107 111.336V117H236.539V111.768C236.539 110.68 236.059 109.944 234.875 109.944C233.531 109.944 232.667 110.76 232.667 111.992V117H231.099V108.84H232.667V109.864H232.699C233.131 109.24 233.979 108.6 235.387 108.6ZM247.29 112.744C247.29 112.968 247.29 113.208 247.274 113.336H241.002C241.034 114.696 241.834 115.96 243.45 115.96C244.89 115.96 245.45 115.032 245.594 114.488H247.194C246.762 116.056 245.562 117.24 243.418 117.24C240.826 117.24 239.386 115.4 239.386 112.904C239.386 110.344 240.922 108.584 243.418 108.584C245.898 108.584 247.29 110.216 247.29 112.744ZM241.002 112.104H245.658C245.658 110.824 244.762 109.864 243.37 109.864C242.058 109.864 241.098 110.76 241.002 112.104ZM249.467 119.864C249.115 119.864 248.875 119.832 248.459 119.752V118.472C248.731 118.504 248.875 118.52 249.131 118.52C249.755 118.52 250.491 118.2 250.811 116.92L247.515 108.84H249.227L251.611 115.08H251.643L253.883 108.84H255.531L252.299 117.192C251.515 119.208 250.731 119.864 249.467 119.864ZM50.6561 127.6C52.7361 127.6 54.3201 129.232 54.3201 131.92C54.3201 134.608 52.7361 136.224 50.6561 136.224C49.3761 136.224 48.5921 135.648 48.1441 134.992H48.1121V136H46.5441V124.56H48.1121V128.8H48.1441C48.5921 128.224 49.3761 127.6 50.6561 127.6ZM50.4001 134.928C51.9361 134.928 52.6721 133.52 52.6721 131.92C52.6721 130.32 51.9361 128.912 50.4001 128.912C48.9921 128.912 48.1281 130.064 48.1281 131.92C48.1281 133.76 48.9921 134.928 50.4001 134.928ZM56.5063 138.864C56.1543 138.864 55.9143 138.832 55.4983 138.752V137.472C55.7703 137.504 55.9143 137.52 56.1703 137.52C56.7943 137.52 57.5303 137.2 57.8503 135.92L54.5543 127.84H56.2663L58.6503 134.08H58.6823L60.9223 127.84H62.5703L59.3383 136.192C58.5543 138.208 57.7703 138.864 56.5063 138.864ZM69.6976 136.224C67.2176 136.224 65.9856 134.944 65.9376 133.28H67.5216C67.5856 134.224 68.1616 134.96 69.6816 134.96C71.0576 134.96 71.4256 134.352 71.4256 133.76C71.4256 132.736 70.3376 132.624 69.2816 132.4C67.8576 132.064 66.2256 131.648 66.2256 129.952C66.2256 128.544 67.3616 127.6 69.3296 127.6C71.5696 127.6 72.6416 128.8 72.7536 130.208H71.1696C71.0576 129.584 70.7216 128.864 69.3616 128.864C68.3056 128.864 67.8576 129.28 67.8576 129.888C67.8576 130.736 68.7696 130.816 69.9216 131.072C71.4256 131.424 73.0576 131.856 73.0576 133.68C73.0576 135.264 71.8416 136.224 69.6976 136.224ZM81.7821 131.744C81.7821 131.968 81.7821 132.208 81.7661 132.336H75.4941C75.5261 133.696 76.3261 134.96 77.9421 134.96C79.3821 134.96 79.9421 134.032 80.0861 133.488H81.6861C81.2541 135.056 80.0541 136.24 77.9101 136.24C75.3181 136.24 73.8781 134.4 73.8781 131.904C73.8781 129.344 75.4141 127.584 77.9101 127.584C80.3901 127.584 81.7821 129.216 81.7821 131.744ZM75.4941 131.104H80.1501C80.1501 129.824 79.2541 128.864 77.8621 128.864C76.5501 128.864 75.5901 129.76 75.4941 131.104ZM87.3946 127.6C88.8986 127.6 90.1146 128.464 90.1146 130.336V136H88.5466V130.768C88.5466 129.68 88.0666 128.944 86.8826 128.944C85.5386 128.944 84.6746 129.76 84.6746 130.992V136H83.1066V127.84H84.6746V128.864H84.7066C85.1386 128.24 85.9866 127.6 87.3946 127.6ZM97.6017 128.832V124.56H99.1697V136H97.6017V135.04H97.5697C97.1217 135.616 96.3377 136.224 95.0577 136.224C92.9777 136.224 91.3937 134.608 91.3937 131.92C91.3937 129.232 92.9777 127.6 95.0577 127.6C96.3377 127.6 97.1217 128.192 97.5697 128.832H97.6017ZM95.3137 134.928C96.7217 134.928 97.5857 133.76 97.5857 131.92C97.5857 130.064 96.7217 128.912 95.3137 128.912C93.7777 128.912 93.0257 130.32 93.0257 131.92C93.0257 133.52 93.7777 134.928 95.3137 134.928ZM102.615 126.384H100.839V124.688H102.615V126.384ZM102.503 136H100.935V127.84H102.503V136ZM108.551 127.6C110.055 127.6 111.271 128.464 111.271 130.336V136H109.703V130.768C109.703 129.68 109.223 128.944 108.039 128.944C106.695 128.944 105.831 129.76 105.831 130.992V136H104.263V127.84H105.831V128.864H105.863C106.295 128.24 107.143 127.6 108.551 127.6ZM118.726 128.8V127.84H120.294V135.36C120.294 137.824 118.806 138.928 116.47 138.928C114.134 138.928 112.966 137.808 112.806 136.336H114.438C114.598 137.072 115.142 137.648 116.47 137.648C117.958 137.648 118.726 136.992 118.726 135.456V134.352H118.694C118.246 135.008 117.494 135.584 116.182 135.584C114.15 135.584 112.582 134.208 112.582 131.6C112.582 128.976 114.15 127.6 116.182 127.6C117.494 127.6 118.246 128.224 118.694 128.8H118.726ZM116.47 134.288C117.878 134.288 118.71 133.376 118.71 131.6C118.71 129.808 117.878 128.912 116.47 128.912C114.934 128.912 114.214 130.064 114.214 131.6C114.214 133.136 114.934 134.288 116.47 134.288ZM130.764 132.848V127.84H132.332V136H130.764V134.976H130.732C130.3 135.6 129.452 136.224 128.044 136.224C126.54 136.224 125.324 135.36 125.324 133.488V127.84H126.892V133.056C126.892 134.16 127.372 134.896 128.556 134.896C129.9 134.896 130.764 134.08 130.764 132.848ZM137.307 136.224C134.827 136.224 133.595 134.944 133.547 133.28H135.131C135.195 134.224 135.771 134.96 137.291 134.96C138.667 134.96 139.035 134.352 139.035 133.76C139.035 132.736 137.947 132.624 136.891 132.4C135.467 132.064 133.835 131.648 133.835 129.952C133.835 128.544 134.971 127.6 136.939 127.6C139.179 127.6 140.251 128.8 140.363 130.208H138.779C138.667 129.584 138.331 128.864 136.971 128.864C135.915 128.864 135.467 129.28 135.467 129.888C135.467 130.736 136.379 130.816 137.531 131.072C139.035 131.424 140.667 131.856 140.667 133.68C140.667 135.264 139.451 136.224 137.307 136.224ZM145.928 138.864C145.576 138.864 145.336 138.832 144.92 138.752V137.472C145.192 137.504 145.336 137.52 145.592 137.52C146.216 137.52 146.952 137.2 147.272 135.92L143.976 127.84H145.688L148.072 134.08H148.104L150.344 127.84H151.992L148.76 136.192C147.976 138.208 147.192 138.864 145.928 138.864ZM156.301 136.24C153.757 136.24 152.221 134.48 152.221 131.92C152.221 129.376 153.757 127.584 156.317 127.584C158.845 127.584 160.381 129.36 160.381 131.904C160.381 134.464 158.845 136.24 156.301 136.24ZM156.317 134.944C157.981 134.944 158.749 133.616 158.749 131.92C158.749 130.208 157.981 128.896 156.317 128.896C154.621 128.896 153.853 130.208 153.853 131.92C153.853 133.616 154.621 134.944 156.317 134.944ZM167.092 132.848V127.84H168.66V136H167.092V134.976H167.06C166.628 135.6 165.78 136.224 164.372 136.224C162.868 136.224 161.652 135.36 161.652 133.488V127.84H163.22V133.056C163.22 134.16 163.7 134.896 164.884 134.896C166.228 134.896 167.092 134.08 167.092 132.848ZM174.211 127.648C174.499 127.648 174.723 127.664 174.963 127.696V129.2C174.771 129.168 174.627 129.152 174.435 129.152C173.011 129.152 171.987 130.224 171.987 131.776V136H170.419V127.84H171.987V129.392H172.019C172.451 128.368 173.107 127.648 174.211 127.648ZM182.077 136H180.461L177.933 127.84H179.629L181.357 134.16H181.389L183.085 127.84H184.669L186.365 134.16H186.397L188.141 127.84H189.773L187.245 136H185.629L183.869 129.712H183.837L182.077 136ZM192.474 126.384H190.698V124.688H192.474V126.384ZM192.362 136H190.794V127.84H192.362V136ZM197.338 136.224C194.858 136.224 193.626 134.944 193.578 133.28H195.162C195.226 134.224 195.802 134.96 197.322 134.96C198.698 134.96 199.066 134.352 199.066 133.76C199.066 132.736 197.978 132.624 196.922 132.4C195.498 132.064 193.866 131.648 193.866 129.952C193.866 128.544 195.002 127.6 196.97 127.6C199.21 127.6 200.282 128.8 200.394 130.208H198.81C198.698 129.584 198.362 128.864 197.002 128.864C195.946 128.864 195.498 129.28 195.498 129.888C195.498 130.736 196.41 130.816 197.562 131.072C199.066 131.424 200.698 131.856 200.698 133.68C200.698 135.264 199.482 136.224 197.338 136.224ZM206.223 127.6C207.727 127.6 208.943 128.464 208.943 130.336V136H207.375V130.768C207.375 129.68 206.895 128.944 205.711 128.944C204.367 128.944 203.503 129.76 203.503 130.992V136H201.935V124.56H203.503V128.864H203.535C203.967 128.24 204.815 127.6 206.223 127.6ZM212.014 132.88H211.102L210.686 127.664V124.56H212.414V127.664L212.014 132.88ZM212.43 136H210.686V134.256H212.43V136Z" fill="white"/>
<path d="M162.206 15.0428C161.343 13.6611 159.624 13.4061 158.069 13.7516C152.518 15.0428 147.262 22.4943 143.47 27.7498C141.274 30.7189 138.947 34.165 136.537 37.1424C136.496 37.0519 136.496 36.9696 136.455 36.8792C135.764 34.6832 134.859 32.5695 134.045 30.464C133.445 28.9177 132.795 27.3222 132.499 25.6855C134.308 24.608 135.904 23.3579 137.491 21.8939C139.301 20.2161 141.151 17.6747 140.378 15.0922C139.769 13.1923 137.664 12.8551 135.896 13.9736C133.741 15.3554 132.449 17.5513 131.594 19.8707C130.903 21.8528 130.862 24.2215 131.249 26.2447C130.344 26.7711 129.415 27.2399 128.477 27.7169C128.148 27.2728 127.803 26.8451 127.408 26.4339C125.146 24.0981 121.757 22.9384 117.234 22.9384C116.806 22.9384 116.395 22.9631 116.008 23.0125L119.257 21.3511C121.231 20.4382 123.041 19.4759 124.702 18.4643C126.363 17.4526 127.72 16.2765 128.781 14.9277C129.834 13.5788 130.369 11.8763 130.369 9.80374C130.369 5.95462 128.913 3.36387 126.001 2.01503C123.09 0.666194 118.92 0 113.492 0H94.3695C95.4716 0.287861 96.5079 0.806012 97.4702 1.54623C98.4325 2.29467 99.0575 3.19115 99.3454 4.25212V45.7946C99.0575 46.8556 98.4325 47.7521 97.4702 48.5005C96.5079 49.249 95.4716 49.7836 94.3695 50.1208H110.095C108.985 49.7836 107.965 49.2408 107.027 48.5005C106.09 47.7521 105.448 46.8556 105.111 45.7946V38.2938C105.111 35.555 105.752 33.0794 107.027 30.867C108.302 28.6546 109.873 26.9027 111.748 25.6032C113.623 24.3037 115.449 23.654 117.226 23.654C119.874 23.654 121.807 24.6163 123.032 26.5408C123.69 27.5689 124.159 28.7121 124.463 29.9458C122.119 31.4674 119.866 33.2768 118.147 35.5057C116.337 37.7921 115.301 40.9339 116.082 43.7714C116.601 45.8851 118.492 47.4725 120.688 47.7357C122.111 47.9002 123.509 47.7028 124.85 47.2915V64.81C124.85 64.81 124.776 64.8264 124.743 64.8264C121.042 65.2541 116.387 64.0039 115.696 59.7847C115.696 59.6531 115.482 59.7025 115.482 59.7847C115.959 64.0039 120.861 65.6406 124.825 65.0814C124.825 65.0814 124.842 65.0814 124.85 65.0814V82.6656C124.562 83.7266 123.937 84.623 122.975 85.3715C122.012 86.1199 120.976 86.6628 119.874 86.9917L135.748 86.8437C134.637 86.5065 133.617 85.9637 132.68 85.2234C131.742 84.475 131.101 83.5785 130.772 82.5175V62.688C131.841 61.9478 132.844 61.0513 133.741 60.0479C136.537 56.9061 138.478 52.5142 138.388 48.2538C138.347 44.7255 137.697 40.975 136.628 37.5289C139.128 34.4282 141.406 31.0232 143.734 27.9226C147.566 22.7575 152.304 15.6103 157.987 14.0147C159.369 13.6282 161.178 13.842 162.033 15.1333C162.593 15.9886 162.593 17.1977 162.338 18.1024C162.288 18.1846 162.469 18.1846 162.469 18.1024C162.724 17.1565 162.765 15.9475 162.206 15.0428ZM109.231 26.7547C107.406 28.4818 106.032 30.6778 105.119 33.3179V0.715541H113.484C115.548 0.715541 117.415 0.888258 119.076 1.21724C120.738 1.55445 122.054 2.29467 123.041 3.45434C124.027 4.60578 124.521 6.4152 124.521 8.86613C124.521 11.1279 124.077 13.036 123.189 14.5987C122.3 16.1614 121.141 17.5431 119.726 18.7439C118.311 19.9447 116.782 21.0797 115.145 22.1324C113.031 23.4813 111.057 25.0193 109.231 26.7464V26.7547ZM132.408 20.2572C133.017 18.0201 134.004 15.6926 136.027 14.2286C137.45 13.1512 139.728 13.365 139.95 15.2155C140.205 17.6253 138.618 19.7802 137.105 21.5485C135.813 23.0947 134.136 24.3942 132.449 25.5045C132.063 23.7856 131.972 21.9762 132.408 20.249V20.2572ZM131.29 26.4175C131.594 28.013 132.277 29.5593 132.795 31.0232C133.782 33.4331 134.818 35.7195 135.764 38.1293C134.201 39.9469 132.655 41.8139 130.796 43.4095V35.1273C130.796 32.3474 130.056 29.9376 128.6 27.8897C129.497 27.4044 130.402 26.9274 131.29 26.4175ZM120.828 47.2175C118.978 46.9214 117.596 45.2354 117.25 43.426C116.732 40.9257 117.555 38.1704 118.978 36.0156C120.409 33.762 122.366 31.9444 124.554 30.357C124.759 31.3111 124.883 32.3145 124.883 33.3837V41.1148H124.85V46.8967C123.583 47.2751 122.234 47.4313 120.82 47.2011L120.828 47.2175ZM138.009 48.2538C138.141 52.4319 136.159 56.7334 133.527 59.8341C132.713 60.7717 131.775 61.6106 130.772 62.3261V62.1041H130.821V61.3803H130.772V43.7878H130.788V43.7714C132.639 42.1758 134.382 40.3171 135.887 38.4747C137.096 41.5343 137.911 45.0215 138.001 48.2538H138.009Z" fill="white"/>
<path d="M157.946 38.4172C158.883 37.677 159.903 37.1588 161.014 36.871H145.288C146.398 37.1588 147.418 37.677 148.356 38.4172C149.293 39.1656 149.927 40.0621 150.264 41.1231V50.3511C150.248 52.5635 149.705 54.4305 148.825 55.9685C147.936 57.5312 146.777 58.9129 145.362 60.1137C143.947 61.3145 142.418 62.4495 140.781 63.5023C138.667 64.8511 136.693 66.3891 134.868 68.1163C133.075 69.8106 131.726 71.9572 130.813 74.5397V78.6849C130.953 76.3327 131.545 74.1778 132.672 72.2368C133.946 70.0244 135.517 68.2726 137.392 66.9731L141.645 64.3741L144.893 62.7127C146.834 61.808 148.619 60.8622 150.264 59.867V61.5366H150.256V62.2604H150.264V82.6738C149.927 83.7348 149.293 84.6313 148.356 85.3797C147.418 86.1282 146.398 86.671 145.288 87H161.014C159.903 86.6628 158.883 86.12 157.946 85.3797C157.008 84.6313 156.367 83.7348 156.038 82.6738V41.1313C156.367 40.0703 157.008 39.1739 157.946 38.4254V38.4172Z" fill="white"/>
</svg>
